<?xml version="1.0" encoding="UTF-8" standalone="no"?>
<svg
   id="svg"
   width="338.99203"
   height="386.78464"
   viewBox="0 0 338.99203 386.78464"
   version="1.1"
   sodipodi:docname="TOTP.svg"
   inkscape:version="1.2 (dc2aeda, 2022-05-15)"
   xmlns:inkscape="http://www.inkscape.org/namespaces/inkscape"
   xmlns:sodipodi="http://sodipodi.sourceforge.net/DTD/sodipodi-0.dtd"
   xmlns="http://www.w3.org/2000/svg"
   xmlns:svg="http://www.w3.org/2000/svg">
  <defs
     id="defs2291" />
  <sodipodi:namedview
     id="namedview2289"
     pagecolor="#505050"
     bordercolor="#eeeeee"
     borderopacity="1"
     inkscape:showpageshadow="0"
     inkscape:pageopacity="0"
     inkscape:pagecheckerboard="0"
     inkscape:deskcolor="#505050"
     showgrid="false"
     inkscape:zoom="0.45617322"
     inkscape:cx="-288.26769"
     inkscape:cy="116.18393"
     inkscape:window-width="1355"
     inkscape:window-height="702"
     inkscape:window-x="0"
     inkscape:window-y="25"
     inkscape:window-maximized="0"
     inkscape:current-layer="svgg" />
  <g
     id="svgg"
     transform="translate(-34.415837,-10.279271)">
    <path
       id="path0"
       d="M 171.942,93.076 C 65.669,103.963 3.204,216.677 50.355,312.47 c 42.874,87.102 156.101,111.948 232.051,50.92 47.068,-37.821 67.03067,-102.62298 51.02067,-161.19098 -26.88888,0.40353 -0.54179,0.32655 -27.39866,0.27033 2.808,8.211 5.66399,20.03265 6.89799,30.50465 l 0.296,2.518 h -13.03 c -14.578,0 -15.999,0.219 -18.657,2.877 -3.851,3.851 -3.714,10.25 0.299,13.999 2.341,2.186 3.277,2.308 17.708,2.308 h 13.629 l -0.273,2.278 c -7.47,62.362 -52.349,106.975 -114.697,114.018 l -2.518,0.284 -0.011,-11.887 c -0.006,-6.538 -0.202,-12.707 -0.435,-13.71 -1.963,-8.458 -13.841,-10.192 -17.889,-2.613 -1.042,1.949 -1.095,2.596 -1.238,14.868 l -0.148,12.829 h -1.713 c -2.45,0 -10.608,-1.329 -16.253,-2.648 -47.149,-11.018 -84.057,-48.259 -94.881,-95.738 -0.671,-2.942 -2.675,-15.712 -2.681,-17.081 -0.002,-0.465 2.862,-0.6 12.727,-0.6 11.762,0 12.871,-0.072 14.6,-0.955 5.759,-2.938 6.841,-10.933 2.09,-15.446 -2.741,-2.604 -3.849,-2.783 -17.174,-2.783 -10.373,0 -12.245,-0.107 -12.245,-0.695 0,-27.627 20.036,-66.319 45.138,-87.163 19.043,-15.815 50.794,-29.027 70.089,-29.166 0.198,-0.002 0.361,5.663 0.363,12.587 0.003,13.725 0.225,15.321 2.493,17.903 3.811,4.341 9.978,4.54 14.064,0.455 2.821,-2.822 3.104,-4.559 3.104,-19.047 v -12.033 l 3.238,0.318 c 9.195,0.903 19.873,3.332 29.732,6.761 3.423,1.191 6.363,2.166 6.532,2.166 0.168,0 0.307,-6.123 0.307,-13.607 v -13.607 l -5.156,-1.503 c -17.992,-5.247 -41.202,-7.546 -58.394,-5.785 m -35.425,90.339 c -3.546,1.305 -6.061,4.746 -6.061,8.29 0,2.423 -0.145,2.209 17.631,26.196 l 14.865,20.058 -0.465,2.004 c -0.623,2.678 -0.178,10.135 0.756,12.685 l 0.75,2.048 -20.605,30.964 c -20.236,30.408 -20.606,31.007 -20.606,33.347 0,5.157 4.168,8.901 9.423,8.465 3.293,-0.273 0.834,2.284 28.837,-29.99 l 24.241,-27.938 2.202,-0.007 c 15.394,-0.049 27.246,-15.724 23.312,-30.83 -2.95,-11.324 -12.376,-18.541 -24.239,-18.557 l -4.089,-0.006 -18.693,-17.291 c -23.822,-22.036 -22.59,-21.158 -27.259,-19.438 m 57.387,46.568 c 15.586,7.671 10.24,31.141 -7.093,31.141 -16.525,0 -22.626,-21.781 -8.54,-30.486 4.463,-2.759 10.819,-3.025 15.633,-0.655 m -10.606,5.095 c -4.01,1.155 -7.3,6.682 -6.596,11.083 1.979,12.379 20.067,11.242 20.126,-1.266 0.035,-7.296 -6.307,-11.898 -13.53,-9.817"
       stroke="none"
       fill="#000000"
       fill-rule="evenodd"
       sodipodi:nodetypes="cccccccsscscccccccccsccssccsscccccscscssccccsccccccscccsccccccscccccc" />
    <path
       id="path2418"
       style="fill:#000000;fill-rule:evenodd;stroke:none;stroke-width:0.960696"
       d="m 310.51758,10.279297 c -3.51692,0.0038 -7.07688,0.433269 -10.63867,1.332031 -25.07513,6.326389 -43.45118,30.697975 -43.45118,60.390625 v 4.708985 h 9.60743 9.60742 l 0.2539,-5.427735 c 1.47975,-31.625626 31.26686,-49.981063 53.32813,-32.863281 10.07247,7.816127 15.63666,19.002742 16.21875,32.609375 l 0.24219,5.681641 h 9.60937 9.60742 v -3.257813 c 0,-34.902772 -25.74704,-63.205044 -54.38476,-63.173828 z m 0.13672,76.876953 c -30.60523,0.04317 -61.19445,0.446787 -61.79492,1.167969 -0.96956,1.164418 -1.36177,97.868021 -0.40626,100.013671 0.68465,1.53712 123.73919,1.53712 124.42383,0 0.89592,-2.00983 0.57246,-99.203114 -0.33398,-100.187499 -0.66142,-0.719077 -31.28345,-1.037307 -61.88867,-0.994141 z m 0.4414,20.23047 c 8.41415,7.7e-4 15.2347,6.82218 15.23438,15.23633 -0.0747,5.5366 -3.14733,10.59685 -8.02539,13.21679 l 3.98047,14.65039 c 2.5203,9.27534 4.68988,17.38454 4.82226,18.02149 l 0.24219,1.15625 h -16.44922 c -12.98816,0 -16.40954,-0.13289 -16.25,-0.63086 0.11046,-0.34743 2.30835,-8.44058 4.88477,-17.98438 l 4.13672,-15.32226 c -4.76209,-2.6563 -7.74153,-7.65505 -7.8125,-13.10742 -3.2e-4,-8.41491 6.82141,-15.23665 15.23632,-15.23633 z" />
  </g>
</svg>
