<?xml version="1.0" encoding="UTF-8" standalone="no"?>
<svg
   id="svg"
   width="253.49081"
   height="341.51065"
   viewBox="0 0 253.49081 341.51066"
   version="1.1"
   sodipodi:docname="ZK.svg"
   inkscape:version="1.2 (dc2aeda, 2022-05-15)"
   xmlns:inkscape="http://www.inkscape.org/namespaces/inkscape"
   xmlns:sodipodi="http://sodipodi.sourceforge.net/DTD/sodipodi-0.dtd"
   xmlns="http://www.w3.org/2000/svg"
   xmlns:svg="http://www.w3.org/2000/svg">
  <defs
     id="defs190">
    <rect
       x="-92.269829"
       y="154.82564"
       width="147.00616"
       height="132.14915"
       id="rect404" />
  </defs>
  <sodipodi:namedview
     id="namedview188"
     pagecolor="#505050"
     bordercolor="#eeeeee"
     borderopacity="1"
     inkscape:showpageshadow="0"
     inkscape:pageopacity="0"
     inkscape:pagecheckerboard="0"
     inkscape:deskcolor="#505050"
     showgrid="false"
     inkscape:zoom="1.0205818"
     inkscape:cx="201.35574"
     inkscape:cy="136.68675"
     inkscape:window-width="1680"
     inkscape:window-height="891"
     inkscape:window-x="0"
     inkscape:window-y="25"
     inkscape:window-maximized="0"
     inkscape:current-layer="svg" />
  <path
     id="path0"
     d="M 126.29343,1.4989236e-4 C 125.85382,0.00624989 125.47954,0.20175989 124.95554,0.44350989 c -0.421,0.194 -4.83461,3.92688301 -9.80859,8.29687501 -4.975,4.3699901 -9.30882,8.0468751 -9.63282,8.1718751 -1.178,0.453998 -2.29111,0.164804 -13.871092,-3.617188 -12.59298,-4.1129921 -12.58489,-4.1122951 -14.33789,-3.029297 -0.769,0.475 -1.54944,1.875331 -6.23242,11.195313 -5.71,11.362978 -6.31313,12.292422 -8.20313,12.607422 -0.464,0.077 -6.00261,0.541203 -12.30859,1.033203 -12.92798,1.008998 -12.31027,0.927299 -13.32227,1.779297 -1.19,1.000998 -1.25656,1.409743 -2.22656,13.761719 -1.003,12.785974 -1.0943,13.403048 -2.1543,14.373046 -0.396,0.363 -5.573821,3.124728 -11.507809,6.136716 -11.6469755,5.914 -11.9355465,6.10819 -11.9355465,8.07617 0,0.477 1.7249885,6.14949 3.8339845,12.60547 4.89799,14.996979 5.552556,11.777459 -4.8574215,23.898439 -8.49898402,9.89698 -8.67743602,10.15414 -8.27343802,11.99414 0.124,0.565 2.56841702,3.6003 7.94140702,9.86328 4.2699895,4.977 7.9914835,9.35928 8.2714835,9.73828 1.140998,1.543 1.077336,1.84782 -3.097656,14.5918 -4.1979915,12.81198 -4.1803725,12.71894 -2.984375,14.46094 0.462998,0.674 2.533596,1.82383 11.267578,6.25781 11.630983,5.905 12.192703,6.27788 12.470703,8.29688 0.084,0.61 0.55206,6.2455 1.03906,12.52148 1.213,15.64896 -0.52657,13.85945 14.65039,15.06445 6.232,0.494 11.94719,0.96869 12.70117,1.05469 2.363,0.269 2.62265,0.64746 8.80665,12.85742 5.94598,11.73998 5.92695,11.71289 8.00195,11.71289 0.641,0 5.27202,-1.39536 12.25,-3.69336 11.627982,-3.82898 12.653472,-4.06965 14.355472,-3.34765 0.451,0.192 4.90831,3.85086 9.90429,8.13086 9.96298,8.53598 9.70285,8.34112 11.08985,8.32812 1.373,-0.013 1.12446,0.17556 11.14844,-8.39844 4.99698,-4.27398 9.45139,-7.97842 9.90039,-8.23242 1.238,-0.7 1.93777,-0.52632 14.21875,3.51368 15.60596,5.13398 13.18573,6.10285 20.38671,-8.16211 5.467,-10.83198 5.91713,-11.6031 7.16211,-12.2461 0.633,-0.328 21.98499,-2.33676 25.33399,-2.38476 0.469,-0.006 1.84776,-1.2645 2.25976,-2.0625 0.264,-0.511 0.63282,-4.07679 1.25782,-12.13477 0.487,-6.27598 0.95411,-11.90486 1.03711,-12.50586 0.282,-2.057 0.75197,-2.369 12.62695,-8.375 11.92098,-6.02798 11.94727,-6.04483 11.94726,-8.17383 0,-0.628 -1.42131,-5.338 -3.69531,-12.25 -4.04998,-12.30896 -4.21514,-13.09989 -3.11914,-14.83789 0.315,-0.499 4.01847,-4.91542 8.23047,-9.8164 8.02098,-9.33198 8.00977,-9.3168 8.00977,-10.67578 0,-1.326 0.12804,-1.15832 -8.33594,-11.0293 -4.412,-5.144 -8.19235,-9.74942 -8.40235,-10.23242 -0.54998,-1.27 -0.47146,-1.56882 3.64454,-14.050779 4.04098,-12.25698 4.10353,-12.56618 2.89453,-14.20118 -0.458,-0.619 -2.96466,-2.00006 -11.18164,-6.16406 -11.94498,-6.052986 -12.34624,-6.328597 -12.61524,-8.683593 -0.086,-0.753998 -0.56069,-6.471137 -1.05469,-12.703125 -0.87498,-11.025978 -0.9181,-11.354018 -1.5371,-12.166016 -1.116,-1.463996 -1.20531,-1.478611 -14.11329,-2.474609 -13.05396,-1.006998 -13.85593,-1.145535 -14.83593,-2.519531 -0.316,-0.445 -2.99705,-5.565872 -5.95703,-11.38086 -5.791,-11.3779761 -6.02174,-11.7207031 -7.92774,-11.7207031 -0.482,0 -5.93991,1.6528791 -12.12891,3.6718751 -13.10996,4.275992 -12.15537,4.0175 -13.69335,3.6875 -1.075,-0.23 -2.21291,-1.116795 -10.33789,-8.0507811 -8.37975,-7.150486 -10.29641,-8.82310901 -11.61524,-8.80468800764 z M 124.50632,41.427885 c 3.93106,0.01494 10.02213,0.260078 12.29688,0.548828 61.72486,7.836984 95.01423,75.761427 63.15429,128.861327 -24.80894,41.34692 -79.55992,53.98285 -119.714842,27.62891 -58.670884,-38.50694 -48.77433,-127.396329 16.89453,-151.738284 7.634982,-2.830994 14.982932,-4.408424 24.378912,-5.232422 0.60874,-0.05325 1.67988,-0.07334 2.99023,-0.06836 z m -0.23047,12.21875 c -1.2542,-0.0057 -2.21786,0.01431 -2.63086,0.07031 -0.421,0.058 -1.9694,0.231719 -3.4414,0.386719 -27.987962,2.952994 -53.046792,23.738965 -61.384772,50.919926 -14.55096,47.4329 20.42402,94.9082 69.919922,94.9082 55.7809,0 91.15515,-59.95254 64.03321,-108.523441 -11.32698,-20.28596 -31.34645,-33.971754 -54.44141,-37.218748 -1.92,-0.269998 -8.29207,-0.525909 -12.05469,-0.542968 z m 5.57422,36.914066 h 13.49805 v 40.279289 l 14.54492,-21.5039 h 15.56055 l -15.14649,20.98437 16.23242,27.70508 h -15.70898 l -11.80859,-21.20117 -3.67383,5.1582 v 16.04297 H 129.85007 Z M 81.711398,109.33609 h 38.240232 v 9.84179 L 98.094208,146.4064 H 120.3657 v 11.61914 H 80.811008 V 148.00992 L 103.00632,120.73843 H 81.711398 Z m -31.60742,121.30859 c -0.111,-0.001 -0.63978,0.94556 -1.17578,2.10156 -1.283,2.771 -14.04449,29.9842 -25.105472,53.53516 -10.31198,21.95696 -9.339844,19.66925 -9.339844,21.99023 0,3.012 1.658021,5.71133 4.291015,6.98633 1.968996,0.953 3.543657,0.78831 17.265621,-1.80469 19.47196,-3.67998 17.09591,-4.80783 26.83789,12.74415 3.879,6.98998 7.10358,12.50421 7.64258,13.07421 2.785,2.944 8.10074,2.99261 10.92774,0.0996 1.913,-1.95698 36.598652,-75.85409 35.847652,-76.37109 -0.305,-0.211 -3.78914,-3.192 -7.74414,-6.625 -3.95598,-3.433 -7.26837,-6.22603 -7.35937,-6.20703 -0.091,0.018 -4.064082,1.2987 -8.830082,2.8457 -13.15598,4.271 -15.71236,4.45606 -21.31836,1.53906 -4.155,-2.16098 -5.23397,-3.64578 -10.91797,-15.00976 -2.239,-4.475 -4.15476,-8.13572 -4.25976,-8.13672 -0.105,-10e-4 -1.62402,-0.17286 -3.375,-0.38086 -1.752,-0.208 -3.27472,-0.37986 -3.38672,-0.38086 z m 152.863282,0.0508 c -0.44579,-0.001 -1.12397,0.0838 -2.21485,0.2207 -0.91098,0.114 -2.2629,0.28015 -3.0039,0.36915 l -1.3457,0.16211 -4.29102,8.5781 c -6.08198,12.15798 -7.91714,14.25641 -13.82812,15.81641 -4.713,1.243 -6.33306,0.99309 -17.83204,-2.75391 -4.71898,-1.538 -8.74622,-2.831 -8.94922,-2.875 -0.20298,-0.043 -3.54664,2.61522 -7.43164,5.9082 -3.88498,3.293 -7.26567,6.106 -7.51367,6.25 -0.396,0.229 28.00294,61.53712 34.04492,73.4961 2.363,4.67698 6.58049,6.46509 10.60547,4.49609 2.145,-1.05 2.44749,-1.51463 9.39649,-14.43359 9.58898,-17.82698 7.41879,-16.78014 27.21875,-13.11914 9.89298,1.82898 13.68731,2.43603 14.57031,2.33203 4.153,-0.489 6.9923,-3.74735 6.7793,-7.77735 l -0.10352,-1.94531 -17.28515,-36.43164 c -9.506,-20.03796 -17.46641,-36.86272 -17.69141,-37.38672 -0.2265,-0.5275 -0.3355,-0.78975 -0.75,-0.875 -0.10363,-0.0213 -0.22641,-0.0308 -0.375,-0.0312 z" />
</svg>
