<?xml version="1.0" encoding="UTF-8" standalone="no"?>
<svg
   id="svg"
   width="654.72845"
   height="303.11914"
   viewBox="0 0 654.72845 303.11914"
   version="1.1"
   sodipodi:docname="zkAuth.svg"
   inkscape:version="1.2 (dc2aeda, 2022-05-15)"
   xmlns:inkscape="http://www.inkscape.org/namespaces/inkscape"
   xmlns:sodipodi="http://sodipodi.sourceforge.net/DTD/sodipodi-0.dtd"
   xmlns="http://www.w3.org/2000/svg"
   xmlns:svg="http://www.w3.org/2000/svg">
  <defs
     id="defs2291" />
  <sodipodi:namedview
     id="namedview2289"
     pagecolor="#505050"
     bordercolor="#eeeeee"
     borderopacity="1"
     inkscape:showpageshadow="0"
     inkscape:pageopacity="0"
     inkscape:pagecheckerboard="0"
     inkscape:deskcolor="#505050"
     showgrid="true"
     inkscape:zoom="0.56787159"
     inkscape:cx="-38.741153"
     inkscape:cy="254.45894"
     inkscape:window-width="1625"
     inkscape:window-height="831"
     inkscape:window-x="0"
     inkscape:window-y="25"
     inkscape:window-maximized="0"
     inkscape:current-layer="svgg"
     showguides="true" />
  <g
     id="svgg"
     transform="translate(-80.23615,-575.9863)">
    <path
       d="m 286.01378,786.94396 -0.15473,-12.35111 c 0,0 -1.44761,-1.35786 -15.32364,-20.32332 l -14.87613,-20.04974 0.46389,-2.00425 c 0.62151,-2.67835 0.17237,-10.1351 -0.76305,-12.68458 l -0.75113,-2.04759 20.5878,-30.97544 c 20.21909,-30.41923 20.16678,-30.57514 20.16678,-30.57514 l -0.712,-12.67167 -12.72881,3.24098 c 0,0 3.59852,-4.09591 -24.38654,28.19364 l -24.22549,27.95146 -2.20199,0.008 c -15.39397,0.0575 -27.23726,15.73914 -23.29487,30.84295 2.95628,11.32236 12.38629,18.53412 24.2493,18.54353 l 4.089,0.004 18.7026,17.28062 c 19.54943,18.02965 15.4089,13.9896 19.37528,17.61766 m -49.51833,-44.73098 c -15.59026,-7.66234 -10.2573,-31.1353 7.0757,-31.14493 16.525,-0.009 22.63809,21.76843 8.55692,30.48125 -4.46146,2.76148 -10.81731,3.03101 -15.63263,0.66368 m 10.60317,-5.10089 c 4.00935,-1.15722 7.29628,-6.68605 6.58984,-11.08666 -1.98588,-12.3779 -20.07324,-11.23085 -20.12529,1.27718 -0.0309,7.29602 6.3136,11.8945 13.53545,9.80948"
       style="fill:#000000;fill-rule:evenodd;stroke:none"
       id="path400-9"
       inkscape:transform-center-x="-19.837955"
       inkscape:transform-center-y="-10.458723"
       sodipodi:nodetypes="cccccsccccccccccccccccccccc" />
    <path
       d="m 139.22839,691.85996 h 74.31119 l -53.64593,76.77869 h 53.64593 l -12.27566,17.40317 h -76.51001 l 35.64848,-51.44305 17.55683,-25.33564 h -51.0022 z"
       style="font-weight:normal;font-size:233.086px;line-height:1.25;font-family:'Gill Sans';-inkscape-font-specification:'Gill Sans';word-spacing:0px;stroke:none;stroke-width:2.26544;stroke-opacity:1"
       id="path3603"
       sodipodi:nodetypes="cccccccccc" />
    <path
       d="m 525.63721,786.04182 v -11.97748 q -6.38904,6.44942 -14.65073,10.03242 -8.15154,3.58302 -16.30308,3.58302 -9.58357,0 -17.73511,-4.40199 -8.04137,-4.50434 -12.2273,-12.07984 -4.07576,-7.67787 -4.07576,-25.38817 v -53.94982 h 20.04837 v 53.74508 q 0,14.84389 4.5164,20.78145 4.62654,5.83518 16.08275,5.83518 14.32028,0 24.34446,-13.0012 v -67.36051 h 20.04838 v 94.18186 z"
       style="font-weight:normal;font-size:233.086px;line-height:1.25;font-family:'Gill Sans';-inkscape-font-specification:'Gill Sans';word-spacing:0px;stroke:none;stroke-width:2.26544;stroke-opacity:1"
       id="path3607" />
    <path
       d="m 559.67539,706.80621 37.67332,-34.39686 v 19.45061 h 32.05537 v 16.78894 h -32.05537 v 46.16959 q 0,16.17472 14.43043,16.17472 10.79528,0 22.80226,-6.75653 v 17.40317 q -11.56637,6.03993 -25.2257,6.03993 -13.76949,0 -22.91242,-7.47312 -2.86406,-2.25219 -4.73671,-5.01622 -1.87266,-2.8664 -3.19452,-7.37076 -1.21172,-4.60672 -1.21172,-17.40317 V 708.6489 h -17.62494 z"
       style="font-weight:normal;font-size:233.086px;line-height:1.25;font-family:'Gill Sans';-inkscape-font-specification:'Gill Sans';word-spacing:0px;stroke:none;stroke-width:2.26544;stroke-opacity:1"
       id="path3609" />
    <path
       d="m 648.57121,643.02871 h 20.04839 v 61.21822 q 12.55777,-14.22966 31.17412,-14.22966 10.13434,0 18.17572,4.70909 8.04138,4.70909 11.89685,13.0012 3.9656,8.29209 3.9656,24.67156 v 53.6427 H 713.78352 V 727.7924 q 0,-10.33954 -5.5078,-16.58421 -5.39764,-6.34704 -14.32026,-6.34704 -6.60936,0 -12.44762,3.17352 -5.83826,3.17352 -12.88824,10.54428 v 67.46287 h -20.04839 z"
       style="font-weight:normal;font-size:233.086px;line-height:1.25;font-family:'Gill Sans';-inkscape-font-specification:'Gill Sans';word-spacing:0px;stroke:none;stroke-width:2.26544;stroke-opacity:1"
       id="path3611" />
    <path
       id="path1173"
       style="fill:#000000;fill-opacity:1;stroke:none;stroke-width:0.533333;stroke-opacity:0.429104;paint-order:markers fill stroke;stop-color:#000000"
       d="M 231.7967 575.9863 A 151.56001 151.56001 0 0 0 80.23615 727.54685 A 151.56001 151.56001 0 0 0 231.7967 879.10544 A 151.56001 151.56001 0 0 0 360.72248 805.8945 L 337.41779 805.57224 A 131.69514 131.69514 0 0 1 241.75568 858.22653 L 239.93928 840.05661 L 231.42756 825.05661 L 222.93928 840.05661 L 221.12482 858.20505 A 131.69514 131.69514 0 0 1 100.75177 738.29685 L 118.96076 736.47653 L 133.96076 727.99021 L 118.96076 719.47653 L 100.65021 717.6445 A 131.69514 131.69514 0 0 1 221.11896 596.46286 L 222.93928 614.66208 L 231.42756 629.66208 L 239.93928 614.66208 L 241.76545 596.41208 A 131.69514 131.69514 0 0 1 335.06428 645.93552 L 344.08967 626.35153 A 151.56001 151.56001 0 0 0 231.7967 575.9863 z " />
    <g
       id="g5204"
       transform="matrix(1.0003139,0,0,0.87031902,-0.13462308,101.84079)"
       style="stroke:none;stroke-opacity:1">
      <path
         id="path5125-3"
         style="font-weight:normal;font-size:233.086px;line-height:1.25;font-family:'Gill Sans';-inkscape-font-specification:'Gill Sans';word-spacing:0px;stroke:none;stroke-width:2.42798;stroke-opacity:1"
         d="m 361.96581,620.82957 -66.07225,165.26366 h 22.57616 0.0898 l 12.11133,-30.16021 0.004,-0.0103 38.7793,-98.98248 45.26172,108.21493 h -76.81571 l -8.31836,20.93747 h 94.16337 22.57421 L 377.49307,620.82895 Z"
         sodipodi:nodetypes="cccccccccccccc" />
      <path
         d="m 369.93585,702.68292 c 5.81734,6.7e-4 10.53291,5.29986 10.53269,11.83625 -0.0516,4.30108 -2.17599,8.23204 -5.54856,10.26736 l 2.752,11.38096 c 1.74247,7.20551 3.24247,13.50505 3.33399,13.99989 l 0.16745,0.89822 h -11.3726 c -8.9797,0 -11.34516,-0.10338 -11.23486,-0.49012 0.0764,-0.2699 1.59594,-6.55696 3.37721,-13.97101 l 2.86003,-11.90289 c -3.2924,-2.06351 -5.35231,-5.94672 -5.40138,-10.18241 -2.2e-4,-6.53695 4.71616,-11.83647 10.53403,-11.83625 z"
         style="fill:#000000;fill-opacity:1;fill-rule:evenodd;stroke:none;stroke-width:0.704058;stroke-opacity:1"
         id="path3627-4-3" />
    </g>
  </g>
  <g
     inkscape:groupmode="layer"
     id="layer1"
     inkscape:label="Layer 1"
     style="display:inline" />
</svg>
